g Combined Mesh (root: scene)
v -233.2389 2.694543 -93.63281
v -420.2389 2.694543 -93.63281
v -233.2389 2.694543 -433.6328
v -420.2389 2.694543 -433.6328
v 413.6586 2.694543 -93.63281
v 226.6586 2.694543 -93.63281
v 413.6586 2.694543 -433.6328
v 226.6586 2.694543 -433.6328
v 92.00703 2.694543 -93.63281
v -94.99297 2.694543 -93.63281
v 92.00703 2.694543 -433.6328
v -94.99297 2.694543 -433.6328
v -157.2173 -59.02718 -3397.436
v 157.5752 -59.02718 -3397.436
v -157.2173 139.0463 -3397.436
v 157.5752 139.0463 -3397.436
v -157.2173 139.0463 -3676.608
v 157.5752 139.0463 -3676.608
v -157.2173 -59.02718 -3676.608
v 157.5752 -59.02718 -3676.608
v -157.2173 139.0463 -3397.436
v 157.5752 139.0463 -3397.436
v -157.2173 139.0463 -3676.608
v 157.5752 139.0463 -3676.608
v -157.2173 -59.02718 -3676.608
v 157.5752 -59.02718 -3397.436
v 157.5752 -59.02718 -3676.608
v -157.2173 -59.02718 -3397.436
v 157.5752 -59.02718 -3397.436
v 157.5752 139.0463 -3676.608
v 157.5752 -59.02718 -3676.608
v 157.5752 139.0463 -3397.436
v -157.2173 -59.02718 -3676.608
v -157.2173 139.0463 -3397.436
v -157.2173 -59.02718 -3397.436
v -157.2173 139.0463 -3676.608
v -305.8804 -126.5534 -2880.245
v 305.8804 -126.5534 -2880.245
v -305.8804 258.3782 -2880.245
v 305.8804 258.3782 -2880.245
v -305.8804 258.3782 -3041.755
v 305.8804 258.3782 -3041.755
v -305.8804 -126.5534 -3041.755
v 305.8804 -126.5534 -3041.755
v -305.8804 258.3782 -2880.245
v 305.8804 258.3782 -2880.245
v -305.8804 258.3782 -3041.755
v 305.8804 258.3782 -3041.755
v -305.8804 -126.5534 -3041.755
v 305.8804 -126.5534 -2880.245
v 305.8804 -126.5534 -3041.755
v -305.8804 -126.5534 -2880.245
v 305.8804 -126.5534 -2880.245
v 305.8804 258.3782 -3041.755
v 305.8804 -126.5534 -3041.755
v 305.8804 258.3782 -2880.245
v -305.8804 -126.5534 -3041.755
v -305.8804 258.3782 -2880.245
v -305.8804 -126.5534 -2880.245
v -305.8804 258.3782 -3041.755
v -253.461 69.11192 -3078.389
v 251.6961 69.11192 -3078.389
v -253.461 495.1161 -2927.919
v 251.6961 495.1161 -2927.919
v 556.312 525.3407 654.269
v 556.312 525.3407 -3499.709
v -559.4388 525.3328 654.269
v -559.4388 525.3328 -3499.709
v 135.1318 -25.46145 7.622925
v 135.1318 8.636043 7.622925
v 191.818 8.636043 7.622925
v 135.1318 -25.46145 -3504.536
v 135.1318 8.636043 -3169.725
v 191.818 8.636043 -3169.725
v 144.0179 12.02235 7.622925
v 182.9319 12.02235 7.622925
v 182.8884 12.019 -3169.728
v 144.0614 12.019 -3169.728
v 191.818 154.6256 -3322.014
v 135.1318 154.6256 -3322.014
v 135.1318 154.6256 -3504.536
v 135.1318 8.636043 -3169.725
v 135.1318 8.636043 7.622925
v 135.1318 154.6256 -3322.014
v 422.8095 0.01191876 -3396.882
v 463.8639 0.01191876 -3396.882
v 422.8095 -0.004315972 7.786987
v 463.7405 0.1385497 7.702637
v -136.8728 -25.46145 7.622925
v -193.5591 8.636043 7.622925
v -136.8728 8.636043 7.622925
v -136.8728 -25.46145 -3504.536
v -193.5591 8.636043 -3169.725
v -136.8728 8.636043 -3169.725
v -184.673 12.02235 7.622925
v -145.759 12.02235 7.622925
v -145.8025 12.019 -3169.728
v -184.6294 12.019 -3169.728
v -136.8728 154.6256 -3322.014
v -193.5591 154.6256 -3322.014
v -136.8728 154.6256 -3504.536
v -136.8728 8.636043 7.622925
v -136.8728 8.636043 -3169.725
v -136.8728 154.6256 -3322.014
v -559.4418 108.2285 -3193.417
v 555.8162 108.2285 -3193.417
v -559.4418 531.0924 -3193.417
v 555.8162 531.0924 -3193.417
v -179.8855 108.2285 -3193.417
v -179.8855 531.0924 -3193.417
v 179.5762 108.2285 -3193.417
v 179.5762 531.0924 -3193.417
v -202.5018 108.2285 -3102.874
v -202.5018 531.0924 -3102.874
v 202.1914 108.2285 -3102.874
v 202.1914 531.0924 -3102.874
v 556.5887 -100.237 -3497.814
v 556.5887 231.6597 -3497.814
v -559.1695 -100.237 -3497.814
v -559.1695 231.6597 -3497.814
v -136.1498 0.01355076 -3396.882
v -129.5391 -10.63644 -3396.882
v -120.6457 -15.30555 -3396.882
v -110.5996 -15.30555 -3396.882
v -101.7062 -10.63644 -3396.882
v -95.09543 0.01355076 -3396.882
v -136.1498 -0.005930901 7.786865
v -129.5391 -10.63644 7.786865
v -120.6457 -15.30555 7.786865
v -110.5996 -15.30555 7.786865
v -101.7062 -10.63644 7.786865
v -95.09543 0.01355076 7.786865
v -451.8594 60.99388 -2703.073
v -531.1262 65.61778 -2588.157
v -448.3397 391.4137 -2716.735
v -539.0006 444.0029 -2563.754
v -562.2618 60.99388 -2712.453
v -562.2399 65.61778 -2597.536
v -562.2352 444.0029 -2573.133
v -531.1262 65.61778 -2588.157
v -451.8594 60.99388 -2703.073
v -539.0006 444.0029 -2563.754
v -460.6411 55.61829 -890.7415
v -525.0798 80.17284 -790.3367
v -482.8529 462.2579 -892.6665
v -554.5714 424.8489 -787.6287
v -560.9677 53.99234 -915.4849
v -559.9409 78.66487 -800.3621
v -561.6237 461.0459 -907.9097
v -560.3307 423.7124 -787.1514
v -525.0798 80.17284 -790.3367
v -460.6411 55.61829 -890.7415
v -554.5714 424.8489 -787.6287
v -482.8529 462.2579 -892.6665
v -477.401 61.22621 -1499.14
v -529.4306 67.21468 -1388.624
v -467.7521 390.0775 -1510.552
v -540.8559 442.5322 -1365.298
v -561.8166 61.22621 -1523.741
v -561.7955 67.21468 -1391.751
v -561.7915 442.5325 -1364.692
v -529.4306 67.21468 -1388.624
v -477.401 61.22621 -1499.14
v -540.8559 442.5322 -1365.298
v -461.8925 55.35791 -2115.703
v -526.3312 79.91246 -2015.298
v -484.1043 461.9976 -2117.628
v -555.8228 424.5885 -2012.59
v -562.2191 53.73196 -2140.446
v -561.1923 78.4045 -2025.323
v -562.8751 460.7855 -2132.871
v -561.5821 423.452 -2012.113
v -526.3312 79.91246 -2015.298
v -461.8925 55.35791 -2115.703
v -555.8228 424.5885 -2012.59
v -484.1043 461.9976 -2117.628
v -466.158 0.01382689 -3396.882
v -425.1012 0.01382689 -3396.882
v -466.158 -0.005671344 7.787109
v -424.7113 0.004077775 10.67603
v 556.355 6.687873 -3499.709
v 556.3107 525.3413 -3499.709
v 556.355 6.687873 72.9386
v 556.355 6.687873 -2373.525
v 556.3107 525.3413 -2373.525
v 556.355 6.687873 -1148.743
v 556.3107 525.3413 -1148.743
v 556.3107 525.3413 73.01355
v 556.3107 525.3413 -2373.525
v 556.355 6.687873 -2373.525
v 556.3107 525.3413 -1148.743
v 556.355 6.687873 -1148.743
v 457.1605 54.98879 -890.3833
v 521.5992 79.8419 -789.9789
v 479.3723 466.5731 -892.3083
v 551.0908 428.7088 -787.2705
v 557.4871 53.34307 -915.1267
v 556.4608 78.3156 -800.0043
v 558.1432 465.3459 -907.5515
v 556.8501 427.5585 -786.7932
v 521.5992 79.8419 -789.9789
v 457.1605 54.98879 -890.3833
v 551.0908 428.7088 -787.2705
v 479.3723 466.5731 -892.3083
v 191.7977 0.01382689 -3396.882
v 232.8545 0.01382689 -3396.882
v 191.7977 -0.005671344 7.787109
v 232.978 0.004077775 10.67603
v -234.5347 0.01370374 -3396.882
v -196.0396 0.01370374 -3396.882
v -234.5347 -0.005777944 7.786987
v -196.0396 0.01370374 7.786987
v 463.6162 0.2665818 27.1831
v 465.6485 19.90034 27.1831
v 463.6162 0.2665818 -3505.86
v 465.6585 19.89701 -3186.089
v 475.4804 19.90034 27.1831
v 475.4704 19.89701 -3186.089
v 477.5161 162.5042 -3340.097
v 463.6162 162.5042 -3340.097
v 463.6162 162.5042 -3505.86
v 465.6585 19.89701 -3186.089
v 465.6485 19.90034 27.1831
v 463.6162 162.5042 -3340.097
v -467.4028 -2.434642 12.39392
v -469.4384 17.50234 12.39392
v -467.4028 -2.434642 -3518.591
v -469.4485 17.49901 -3199.003
v -479.6502 17.50234 12.40071
v -479.6402 17.49901 -3199
v -467.4028 160.1064 -3352.924
v -481.6825 160.1064 -3352.918
v -467.4028 160.1064 -3518.591
v -469.4485 17.49901 -3199.003
v -469.4384 17.50234 12.39392
v -467.4028 160.1064 -3352.924
v 91.80099 0.01355076 -3396.882
v 98.41177 -10.63644 -3396.882
v 107.3052 -15.30555 -3396.882
v 117.3512 -15.30555 -3396.882
v 126.2446 -10.63644 -3396.882
v 132.8554 0.01355076 -3396.882
v 91.80099 -0.005930901 7.786865
v 98.41177 -10.63644 7.786865
v 107.3052 -15.30555 7.786865
v 117.3512 -15.30555 7.786865
v 126.2446 -10.63644 7.786865
v 132.8554 0.01355076 7.786865
v 473.6044 60.89912 -1510.512
v 527.0527 66.01724 -1382.611
v 470.0851 391.0891 -1525.26
v 534.9271 444.868 -1353.693
v 558.1884 60.89912 -1519.892
v 558.1667 66.01724 -1391.99
v 558.1616 444.868 -1363.072
v 527.0527 66.01724 -1382.611
v 473.6044 60.89912 -1510.512
v 534.9271 444.868 -1353.693
v -559.9992 6.413706 72.93884
v -559.9992 6.413706 -3499.719
v -559.437 525.3309 -3499.712
v -559.9992 6.413706 -2373.525
v -559.437 525.3309 -2373.525
v -559.9992 6.413706 -1148.743
v -559.437 525.3309 -1148.743
v -559.437 525.3309 73.01379
v -559.9992 6.413706 -2373.525
v -559.437 525.3309 -2373.525
v -559.9992 6.413706 -1148.743
v -559.437 525.3309 -1148.743
v 461.209 59.43151 -2686.752
v 526.9275 65.4927 -2595.301
v 451.5601 392.2762 -2699.775
v 538.3528 445.3678 -2575.267
v 559.3138 59.43151 -2711.353
v 559.2924 65.4927 -2598.428
v 559.2884 445.3682 -2574.66
v 526.9275 65.4927 -2595.301
v 461.209 59.43151 -2686.752
v 538.3528 445.3678 -2575.267
v 457.0886 53.73723 -2111.826
v 521.5273 78.58693 -2011.421
v 479.3004 465.2653 -2113.751
v 551.0189 427.4061 -2008.713
v 557.4152 52.09174 -2136.569
v 556.3889 77.06084 -2021.447
v 558.0713 464.0382 -2128.994
v 556.7782 426.2559 -2008.236
v 521.5273 78.58693 -2011.421
v 457.0886 53.73723 -2111.826
v 551.0189 427.4061 -2008.713
v 479.3004 465.2653 -2113.751
v 477.5595 6.311098 8.480835
v 556.3071 6.429951 654.1335
v 478.4272 6.287328 -3499.886
v 556.3546 6.687464 -3499.712
v -560.0006 6.410142 654.2922
v -560.0006 6.410142 9.459351
v 556.2872 6.303175 8.405518
v -560.0006 6.410142 -3499.72
v -480.7064 6.422027 -3499.732
v -480.7064 6.422027 9.459351
v 413.9619 2.238091 -3408.012
v 229.5795 2.238091 -3408.012
v 413.9619 2.238091 -3290.168
v 229.5795 2.238091 -3290.168
v -236.6685 2.238091 -3407.557
v -421.0508 2.238091 -3407.557
v -236.6685 2.238091 -3289.713
v -421.0508 2.238091 -3289.713
v 90.03127 2.238091 -3408.325
v -94.35109 2.238091 -3408.325
v 90.03127 2.238091 -3290.481
v -94.35109 2.238091 -3290.481
vt 0 0
vt 1 0
vt 0 1
vt 1 1
vt 0 0
vt 1 0
vt 0 1
vt 1 1
vt 0 0
vt 1 0
vt 0 1
vt 1 1
vt 0 0
vt 1 0
vt 0 1
vt 1 1
vt 0 1
vt 1 1
vt 0 1
vt 1 1
vt 0 0
vt 1 0
vt 0 0
vt 1 0
vt 0 0
vt 1 1
vt 1 0
vt 0 1
vt 0 0
vt 1 1
vt 1 0
vt 0 1
vt 0 0
vt 1 1
vt 1 0
vt 0 1
vt 0 0
vt 1 0
vt 0 1
vt 1 1
vt 0 1
vt 1 1
vt 0 1
vt 1 1
vt 0 0
vt 1 0
vt 0 0
vt 1 0
vt 0 0
vt 1 1
vt 1 0
vt 0 1
vt 0 0
vt 1 1
vt 1 0
vt 0 1
vt 0 0
vt 1 1
vt 1 0
vt 0 1
vt 0 0
vt 0.9999926 0
vt 0 1
vt 0.9999926 1
vt 1 0
vt 1 1
vt 0 0
vt 0 1
vt 0.002246576 0.6697168
vt 0.002246576 0.6290374
vt 0.005523994 0.6729184
vt 0.9966089 0.6697168
vt 0.9007444 0.6290374
vt 0.9028383 0.6729184
vt 0.005523994 0.7205471
vt 0.005523994 0.6817796
vt 0.9028383 0.6818251
vt 0.9028383 0.7205017
vt 0.9962599 0.6729184
vt 0.9439123 0.4644686
vt 0.9966089 0.4644686
vt 0.9028383 0.7293931
vt 0.005523994 0.7293931
vt 0.9962599 0.7293931
vt 0.0002419844 0.7347395
vt 0.1872406 0.7347395
vt 0.0002419844 0.7498261
vt 0.1872406 0.7498261
vt 0.002246574 0.6697168
vt 0.005523991 0.7293931
vt 0.002246574 0.6290374
vt 0.9966089 0.6697168
vt 0.9028383 0.7293931
vt 0.9007444 0.6290374
vt 0.005523991 0.7205471
vt 0.005523991 0.6817796
vt 0.9028383 0.6818251
vt 0.9028383 0.7205017
vt 0.9439123 0.4644686
vt 0.9962599 0.7293931
vt 0.9966089 0.4644686
vt 0.005523991 0.6729184
vt 0.9028383 0.6729184
vt 0.9962599 0.6729184
vt 6.210804E-05 0.7496848
vt 6.210804E-05 0.7496848
vt 6.210804E-05 0.9995896
vt 6.210804E-05 0.9995896
vt 0.2500736 0.7496848
vt 0.2500736 0.9995896
vt 0.2500736 0.7496848
vt 0.2500736 0.9995896
vt 0.2500736 0.7500814
vt 0.2500736 0.9995896
vt 0.4997648 0.7500814
vt 0.4997648 0.9995896
vt 0.819327 0.4336785
vt 0.819327 0.6198236
vt 0.004211495 0.4336785
vt 0.004211495 0.6198236
vt 0.01191484 0.734673
vt 0.05715409 0.734673
vt 0.1024046 0.734673
vt 0.1476438 0.734673
vt 0.1928944 0.734673
vt 0.2381336 0.734673
vt 0.01182475 0.7498654
vt 0.05715409 0.7498654
vt 0.1024046 0.7498654
vt 0.1476438 0.7498654
vt 0.1928944 0.7498654
vt 0.2381336 0.7498654
vt 0.6874999 0.01146993
vt 0.5551085 0.0167395
vt 0.6995537 0.3612389
vt 0.526878 0.4191305
vt 0.6990803 0.3622592
vt 0.6880364 0.01183806
vt 0.7007738 0.3600188
vt 0.6685674 0.01277417
vt 0.6806842 0.3686436
vt 0.6806842 0.3686436
vt 0.8632711 0.009972074
vt 0.7543204 0.0179517
vt 0.8255373 0.4335053
vt 0.7047998 0.3841281
vt 0.8255373 0.4335053
vt 0.8632711 0.009972074
vt 0.8632711 0.009972074
vt 0.8255373 0.4335053
vt 0.8484461 0.008798599
vt 0.8103213 0.426621
vt 0.8103213 0.426621
vt 0.8484461 0.008798599
vt 0.9809925 0.0118992
vt 0.8670796 0.01646112
vt 0.9953386 0.4393693
vt 0.8502424 0.5075731
vt 0.8502424 0.5075731
vt 0.8664492 0.03055206
vt 0.8503625 0.4732686
vt 0.8784393 0.02990679
vt 0.8628177 0.5013004
vt 0.8638682 0.4669809
vt 0.8632711 0.009972074
vt 0.7543204 0.0179517
vt 0.8255373 0.4335053
vt 0.7047998 0.3841281
vt 0.8255373 0.4335053
vt 0.8632711 0.009972074
vt 0.8632711 0.009972074
vt 0.8255373 0.4335053
vt 0.8484461 0.008798599
vt 0.8103213 0.426621
vt 0.8103213 0.426621
vt 0.8484461 0.008798599
vt 0.0002419844 0.7347395
vt 0.1872406 0.7347395
vt 0.0002419844 0.7498261
vt 0.1872406 0.7498261
vt 0.9999521 0.7501273
vt 0.9999368 0.9978684
vt 0.4997606 0.7501273
vt 0.4997759 0.7501884
vt 0.4998064 0.9978684
vt 0.4997606 0.7501273
vt 0.4997683 0.9978684
vt 0.4997683 0.9978684
vt 0.9999216 0.997876
vt 0.9999521 0.7501273
vt 0.9999368 0.9978684
vt 0.9999521 0.7501273
vt 0.7539113 0.01953854
vt 0.8599815 0.007842873
vt 0.7040089 0.3837227
vt 0.8241636 0.4323067
vt 0.8255472 0.4335076
vt 0.863284 0.009970544
vt 0.863284 0.009970544
vt 0.8255472 0.4335076
vt 0.8466673 0.008795757
vt 0.8103272 0.4266155
vt 0.8103272 0.4266155
vt 0.8466673 0.008795757
vt 0.0002419844 0.7347395
vt 0.1872406 0.7347395
vt 0.0002419844 0.7498261
vt 0.1872406 0.7498261
vt 0.06253867 0.7347348
vt 0.2496642 0.7347348
vt 0.06253867 0.7498261
vt 0.2496642 0.7498261
vt 0.002246576 0.6697168
vt 0.005523994 0.7249777
vt 0.9966089 0.6697168
vt 0.9028383 0.7249474
vt 0.005523994 0.6817796
vt 0.9028383 0.6818251
vt 0.9458848 0.6729184
vt 0.9439123 0.4644686
vt 0.9966089 0.4644686
vt 0.9007444 0.6290374
vt 0.002246576 0.6290374
vt 0.9458848 0.7293931
vt 0.002246574 0.6697168
vt 0.005523991 0.677349
vt 0.9966089 0.6697168
vt 0.9028383 0.6773642
vt 0.005523991 0.7205471
vt 0.9028383 0.7205017
vt 0.9439123 0.4644686
vt 0.9458848 0.7293931
vt 0.9966089 0.4644686
vt 0.9007444 0.6290374
vt 0.002246574 0.6290374
vt 0.9458848 0.6729184
vt 0.01191484 0.734673
vt 0.05715409 0.734673
vt 0.1024046 0.734673
vt 0.1476438 0.734673
vt 0.1928944 0.734673
vt 0.2381336 0.734673
vt 0.01182475 0.7498654
vt 0.05715409 0.7498654
vt 0.1024046 0.7498654
vt 0.1476438 0.7498654
vt 0.1928944 0.7498654
vt 0.2381336 0.7498654
vt 0.5556082 0.01828831
vt 0.6871812 0.01194934
vt 0.5276136 0.419336
vt 0.6990812 0.3622642
vt 0.6990812 0.3622642
vt 0.6880432 0.01184422
vt 0.7007738 0.3600251
vt 0.6685638 0.01277982
vt 0.6806846 0.3686348
vt 0.6806846 0.3686348
vt 0.4997604 0.7502472
vt 0.9988272 0.7502472
vt 0.9988272 0.9995747
vt 0.4997604 0.7502472
vt 0.4997756 0.9995747
vt 0.4997604 0.7502472
vt 0.4997604 0.9995747
vt 0.4997604 0.9995747
vt 0.9988272 0.7502472
vt 0.9987968 0.9995747
vt 0.9988272 0.7502472
vt 0.9988272 0.9995747
vt 0.8670667 0.01645517
vt 0.9745225 0.01017743
vt 0.8493272 0.5075724
vt 0.9920672 0.438652
vt 0.8493272 0.5075724
vt 0.8664524 0.03055387
vt 0.850361 0.473262
vt 0.8784385 0.02990961
vt 0.8628116 0.5012946
vt 0.8638604 0.4669843
vt 0.7539113 0.01953854
vt 0.8599815 0.007842873
vt 0.7040089 0.3837227
vt 0.8241636 0.4323067
vt 0.8255472 0.4335076
vt 0.863284 0.009970544
vt 0.863284 0.009970544
vt 0.8255472 0.4335076
vt 0.8466673 0.008795757
vt 0.8103272 0.4266155
vt 0.8103272 0.4266155
vt 0.8466673 0.008795757
vt 0.9294118 0.1554589
vt 0.9999542 3.051804E-05
vt 0.93019 1
vt 1 0.9999542
vt 0 0
vt 0 0.1552148
vt 0.9999237 0.1554742
vt 0 0.9999542
vt 0.07101548 0.9999542
vt 0.07101548 0.1552148
vt 0 0
vt 1 0
vt 0 1
vt 1 1
vt 0 0
vt 1 0
vt 0 1
vt 1 1
vt 0 0
vt 1 0
vt 0 1
vt 1 1
vn 0 1 0
vn 0 1 0
vn 0 1 0
vn 0 1 0
vn 0 1 0
vn 0 1 0
vn 0 1 0
vn 0 1 0
vn 0 1 0
vn 0 1 0
vn 0 1 0
vn 0 1 0
vn 0 0 1
vn 0 0 1
vn 0 0 1
vn 0 0 1
vn 0 1 0
vn 0 1 0
vn 0 0 -1
vn 0 0 -1
vn 0 1 0
vn 0 1 0
vn 0 0 -1
vn 0 0 -1
vn 0 -1 0
vn 0 -1 0
vn 0 -1 0
vn 0 -1 0
vn 1 0 0
vn 1 0 0
vn 1 0 0
vn 1 0 0
vn -1 0 0
vn -1 0 0
vn -1 0 0
vn -1 0 0
vn 0 0 1
vn 0 0 1
vn 0 0 1
vn 0 0 1
vn 0 1 0
vn 0 1 0
vn 0 0 -1
vn 0 0 -1
vn 0 1 0
vn 0 1 0
vn 0 0 -1
vn 0 0 -1
vn 0 -1 0
vn 0 -1 0
vn 0 -1 0
vn 0 -1 0
vn 1 0 0
vn 1 0 0
vn 1 0 0
vn 1 0 0
vn -1 0 0
vn -1 0 0
vn -1 0 0
vn -1 0 0
vn 0 -0.3330462 0.9429106
vn 0 -0.3330462 0.9429106
vn 0 -0.3330462 0.9429106
vn 0 -0.3330462 0.9429106
vn 0 -1 0
vn 0.003921539 -0.9999924 0
vn 0.003921539 -0.9999924 0
vn 0 -1 0
vn -0.9999905 -0.004360778 0
vn -0.8193213 0.5642456 -0.1016832
vn 0.35509 0.930917 -0.08546755
vn -0.9999905 -0.004360778 0
vn -0.8299495 0.5323611 0.1666598
vn 0.3338337 0.8724621 0.3568823
vn -0.2400868 0.9681155 -0.07148916
vn 0.1212705 0.9893718 -0.08022983
vn 0.2116099 0.930917 0.2976825
vn -0.1072348 0.9202888 0.3762569
vn 0.08938608 0.7236679 0.6843354
vn -0.7502383 0.4739062 0.4610373
vn -0.9999905 -0.004360778 0
vn -0.8299495 0.5323611 0.1666598
vn -0.8193213 0.5642456 -0.1016832
vn -0.7502383 0.4739062 0.4610373
vn 0 0.9960784 -0.08847462
vn 0 1 0
vn 0 0.9960784 -0.08847462
vn 0 0.9960784 -0.08847462
vn 0.9999716 -0.007545773 0
vn -0.3519256 0.9302058 -0.1042379
vn 0.678974 0.7341624 0
vn 0.9999716 -0.007545773 0
vn -0.3441109 0.9067621 0.2436601
vn 0.9374832 0.3284818 0.115
vn -0.2347066 0.9692788 -0.07356229
vn 0.1246986 0.9921947 0
vn 0.2185401 0.9302058 0.2948853
vn -0.109673 0.9223912 0.3703596
vn 0.3982759 0.6645095 0.6323001
vn -0.1253022 0.7192117 0.6833988
vn 0.9999716 -0.007545773 0
vn 0.678974 0.7341624 0
vn 0.9374832 0.3284818 0.115
vn 0.3982759 0.6645095 0.6323001
vn 0 0 1
vn 0 0 1
vn 0 0 1
vn 0 0 1
vn 0 0 1
vn 0 0 1
vn 0 0 1
vn 0 0 1
vn 0 0 1
vn 0 0 1
vn 0 0 1
vn 0 0 1
vn 0 0 1
vn 0 0 1
vn 0 0 1
vn 0 0 1
vn 0.8494456 0.526296 -0.03814008
vn 0.6188716 0.7854922 0
vn 0.1651763 0.9800746 -0.1103205
vn -0.3174137 0.9440604 -0.08943456
vn -0.742381 0.6631498 -0.09540892
vn -0.8432207 0.526296 -0.1095052
vn 0.8494456 0.526296 -0.03814008
vn 0.7485391 0.6630906 0
vn 0.3236386 0.9440604 -0.06330888
vn -0.1589513 0.9800746 -0.1191146
vn -0.6055271 0.785598 -0.1271721
vn -0.8432207 0.526296 -0.1095052
vn 0.7461703 -0.4500648 0.4905828
vn 0.1970291 -0.7784728 0.5959527
vn 0.8646126 0.007552917 0.5023823
vn 0.3316225 -0.04628446 0.9422761
vn -0.007552917 -0.999206 0.03911918
vn -0.2875073 -0.4877509 0.8242807
vn -0.3682633 -0.06243567 0.9276227
vn 0.1970291 -0.7784728 0.5959527
vn 0.7461703 -0.4500648 0.4905828
vn 0.3316225 -0.04628446 0.9422761
vn 0.7195535 -0.386616 0.5768629
vn 0.1898803 -0.6968532 0.6916221
vn 0.2504143 0.8391991 0.4827396
vn 0.356349 0.2716921 0.8939792
vn -0.02198904 -0.9768233 0.2129147
vn -0.08252312 -0.4395833 0.8944029
vn -0.0673896 0.9527006 0.2963449
vn -0.05982284 0.7710983 0.6338995
vn 0.1898803 -0.6968532 0.6916221
vn 0.7195535 -0.386616 0.5768629
vn 0.356349 0.2716921 0.8939792
vn 0.2504143 0.8391991 0.4827396
vn 0.7970105 -0.4497975 0.4030588
vn 0.2963779 -0.7727864 0.5612142
vn 0.8939072 -0.01376264 0.4480408
vn 0.5184327 -0.04606153 0.853877
vn -0.006424157 -0.9988785 0.04690837
vn -0.02661096 -0.4901712 0.8712199
vn 0.02991208 -0.07432304 0.9967855
vn 0.2963779 -0.7727864 0.5612142
vn 0.7970105 -0.4497975 0.4030588
vn 0.5184327 -0.04606153 0.853877
vn 0.7195535 -0.386616 0.5768629
vn 0.1898803 -0.6968532 0.6916221
vn 0.2504143 0.8391991 0.4827396
vn 0.356349 0.2716921 0.8939792
vn -0.02198904 -0.9768233 0.2129147
vn -0.08252312 -0.4395833 0.8944029
vn -0.0673896 0.9527006 0.2963449
vn -0.05982284 0.7710983 0.6338995
vn 0.1898803 -0.6968532 0.6916221
vn 0.7195535 -0.386616 0.5768629
vn 0.356349 0.2716921 0.8939792
vn 0.2504143 0.8391991 0.4827396
vn 0 1 0
vn 0 1 0
vn 0 1 0
vn 0 1 0
vn -0.9960781 -8.472987E-05 -0.08847793
vn -0.9960781 -8.472987E-05 -0.08847793
vn -0.9960781 -8.472987E-05 -0.08847793
vn -0.9960781 -8.472987E-05 -0.08847793
vn -0.9960781 -8.472987E-05 -0.08847793
vn -0.9960781 -8.472987E-05 -0.08847793
vn -0.9960781 -8.472987E-05 -0.08847793
vn -0.9960781 -8.472987E-05 -0.08847793
vn -0.9960781 -8.472987E-05 -0.08847793
vn -0.9960781 -8.472987E-05 -0.08847793
vn -0.9960781 -8.472987E-05 -0.08847793
vn -0.9960781 -8.472987E-05 -0.08847793
vn -0.7194161 -0.3826552 0.5796683
vn -0.1819491 -0.6925092 0.698087
vn -0.2434813 0.8361795 0.4914476
vn -0.3552397 0.2686653 0.8953344
vn 0.03133739 -0.9762763 0.2142487
vn 0.09172425 -0.4353083 0.8955967
vn 0.0772068 0.9439023 0.3210724
vn 0.0693059 0.7673025 0.6375293
vn -0.1819491 -0.6925092 0.698087
vn -0.7194161 -0.3826552 0.5796683
vn -0.3552397 0.2686653 0.8953344
vn -0.2434813 0.8361795 0.4914476
vn 0 1 0
vn 0 1 0
vn 0 1 0
vn 0 1 0
vn 0 1 0
vn 0 1 0
vn 0 0.9960784 -0.08847462
vn 0 1 0
vn -0.9922145 0.1019667 -0.07150594
vn -0.4274688 0.9019984 -0.06057448
vn -0.9961542 0.03137494 0.08180701
vn -0.7067316 0.6282059 0.3254039
vn 0 1 0
vn 0 0.9692932 0.245908
vn 0 0.7332361 0.6799741
vn -0.8950848 0.3219165 0.3085335
vn -1 0 0
vn -0.7067316 0.6282059 0.3254039
vn -0.4274688 0.9019984 -0.06057448
vn -0.8950848 0.3219165 0.3085335
vn 0.995227 0.09758808 0
vn 0.6705695 0.7411882 -0.03125149
vn 0.9987023 0.05093038 0
vn 0.8039983 0.5843961 0.1098548
vn 0.0039061 0.9999924 0
vn 0.003916423 0.8689525 0.4948801
vn 0.4527664 0.6496589 0.610693
vn 0.00392579 0.7291458 0.6843471
vn 0.999931 -0.0117487 0
vn 0.8039983 0.5843961 0.1098548
vn 0.6705695 0.7411882 -0.03125149
vn 0.4527664 0.6496589 0.610693
vn 0.8494456 0.526296 -0.03814008
vn 0.6188716 0.7854922 0
vn 0.1651763 0.9800746 -0.1103205
vn -0.3174137 0.9440604 -0.08943456
vn -0.742381 0.6631498 -0.09540892
vn -0.8432207 0.526296 -0.1095052
vn 0.8494456 0.526296 -0.03814008
vn 0.7485391 0.6630906 0
vn 0.3236386 0.9440604 -0.06330888
vn -0.1589513 0.9800746 -0.1191146
vn -0.6055271 0.785598 -0.1271721
vn -0.8432207 0.526296 -0.1095052
vn -0.8221649 -0.452792 0.344999
vn -0.2378097 -0.8094764 0.5368376
vn -0.9284113 0.002549763 0.3715453
vn -0.4123573 -0.05816247 0.9091637
vn 0.0126283 -0.9992021 0.03789122
vn 0.2934224 -0.4983262 0.8158274
vn 0.3769017 -0.07334053 0.9233451
vn -0.2378097 -0.8094764 0.5368376
vn -0.8221649 -0.452792 0.344999
vn -0.4123573 -0.05816247 0.9091637
vn 0.9999994 -0.001082081 -0.0001455764
vn 0.9999994 -0.001082081 -0.0001455764
vn 0.9999994 -0.001082081 -0.0001455764
vn 0.9999994 -0.001082081 -0.0001455764
vn 0.9999994 -0.001082081 -0.0001455764
vn 0.9999994 -0.001082081 -0.0001455764
vn 0.9999994 -0.001082081 -0.0001455764
vn 0.9999994 -0.001082081 -0.0001455764
vn 0.9999994 -0.001082081 -0.0001455764
vn 0.9999994 -0.001082081 -0.0001455764
vn 0.9999994 -0.001082081 -0.0001455764
vn 0.9999994 -0.001082081 -0.0001455764
vn -0.7148255 -0.4450334 0.5394163
vn -0.2512328 -0.7448936 0.6180741
vn -0.8129452 -0.007105071 0.5822968
vn -0.4421103 -0.04233627 0.895961
vn 0.01449636 -0.9984493 0.05374768
vn 0.03581845 -0.4805408 0.8762407
vn -0.02846814 -0.06347662 0.9975772
vn -0.2512328 -0.7448936 0.6180741
vn -0.7148255 -0.4450334 0.5394163
vn -0.4421103 -0.04233627 0.895961
vn -0.7194017 -0.3827 0.5796567
vn -0.1819372 -0.6925585 0.6980412
vn -0.243458 0.8362139 0.4914006
vn -0.3552363 0.2686994 0.8953256
vn 0.0313333 -0.9762826 0.2142208
vn 0.09172187 -0.4353566 0.8955734
vn 0.0771974 0.9439164 0.3210333
vn 0.06930032 0.7673456 0.6374779
vn -0.1819372 -0.6925585 0.6980412
vn -0.7194017 -0.3827 0.5796567
vn -0.3552363 0.2686994 0.8953256
vn -0.243458 0.8362139 0.4914006
vn 9.786583E-05 0.9960781 -0.08847859
vn 9.786583E-05 0.9960781 -0.08847859
vn -0.003824087 0.9960781 -0.08839597
vn 9.786583E-05 0.9960781 0.08847859
vn 9.786583E-05 1 0
vn 9.786583E-05 1 0
vn 9.786583E-05 1 0
vn 9.786583E-05 1 0
vn 9.786583E-05 1 0
vn 9.786583E-05 1 0
vn 0 1 0
vn 0 1 0
vn 0 1 0
vn 0 1 0
vn 0 1 0
vn 0 1 0
vn 0 1 0
vn 0 1 0
vn 0 1 0
vn 0 1 0
vn 0 1 0
vn 0 1 0
g Combined Mesh (root: scene)_0
f 3/3/3 4/4/4 2/2/2
f 1/1/1 3/3/3 2/2/2
g Combined Mesh (root: scene)_1
f 7/7/7 8/8/8 6/6/6
f 5/5/5 7/7/7 6/6/6
g Combined Mesh (root: scene)_2
f 11/11/11 12/12/12 10/10/10
f 9/9/9 11/11/11 10/10/10
g Combined Mesh (root: scene)_3
f 16/16/16 13/13/13 14/14/14
f 15/15/15 13/13/13 16/16/16
f 18/18/18 21/21/21 22/22/22
f 17/17/17 21/21/21 18/18/18
f 20/20/20 23/23/23 24/24/24
f 19/19/19 23/23/23 20/20/20
f 26/26/26 25/25/25 27/27/27
f 28/28/28 25/25/25 26/26/26
f 30/30/30 29/29/29 31/31/31
f 32/32/32 29/29/29 30/30/30
f 34/34/34 33/33/33 35/35/35
f 36/36/36 33/33/33 34/34/34
g Combined Mesh (root: scene)_4
f 40/40/40 37/37/37 38/38/38
f 39/39/39 37/37/37 40/40/40
f 42/42/42 45/45/45 46/46/46
f 41/41/41 45/45/45 42/42/42
f 44/44/44 47/47/47 48/48/48
f 43/43/43 47/47/47 44/44/44
f 50/50/50 49/49/49 51/51/51
f 52/52/52 49/49/49 50/50/50
f 54/54/54 53/53/53 55/55/55
f 56/56/56 53/53/53 54/54/54
f 58/58/58 57/57/57 59/59/59
f 60/60/60 57/57/57 58/58/58
g Combined Mesh (root: scene)_5
f 64/64/64 61/61/61 62/62/62
f 63/63/63 61/61/61 64/64/64
g Combined Mesh (root: scene)_6
f 66/66/66 67/67/67 68/68/68
f 65/65/65 67/67/67 66/66/66
g Combined Mesh (root: scene)_7
f 72/72/72 80/80/80 81/81/81
f 73/73/73 80/80/80 72/72/72
f 69/69/69 73/73/73 72/72/72
f 70/70/70 73/73/73 69/69/69
f 77/77/77 71/71/71 74/74/74
f 76/76/76 71/71/71 77/77/77
f 78/78/78 76/76/76 77/77/77
f 75/75/75 76/76/76 78/78/78
f 82/82/82 75/75/75 78/78/78
f 83/83/83 75/75/75 82/82/82
f 79/79/79 77/77/77 74/74/74
f 78/78/78 77/77/77 79/79/79
f 84/84/84 78/78/78 79/79/79
f 82/82/82 78/78/78 84/84/84
g Combined Mesh (root: scene)_8
f 88/88/88 85/85/85 87/87/87
f 86/86/86 85/85/85 88/88/88
g Combined Mesh (root: scene)_9
f 94/94/94 92/92/92 101/101/101
f 89/89/89 92/92/92 94/94/94
f 91/91/91 89/89/89 94/94/94
f 97/97/97 102/102/102 103/103/103
f 96/96/96 102/102/102 97/97/97
f 98/98/98 96/96/96 97/97/97
f 95/95/95 96/96/96 98/98/98
f 93/93/93 95/95/95 98/98/98
f 90/90/90 95/95/95 93/93/93
f 99/99/99 94/94/94 101/101/101
f 104/104/104 97/97/97 103/103/103
f 98/98/98 97/97/97 104/104/104
f 100/100/100 98/98/98 104/104/104
f 93/93/93 98/98/98 100/100/100
g Combined Mesh (root: scene)_10
f 110/110/110 105/105/105 109/109/109
f 107/107/107 105/105/105 110/110/110
f 115/115/115 114/114/114 113/113/113
f 116/116/116 114/114/114 115/115/115
f 106/106/106 112/112/112 111/111/111
f 108/108/108 112/112/112 106/106/106
g Combined Mesh (root: scene)_11
f 120/120/120 117/117/117 118/118/118
f 119/119/119 117/117/117 120/120/120
g Combined Mesh (root: scene)_12
f 125/125/125 132/132/132 126/126/126
f 131/131/131 132/132/132 125/125/125
f 124/124/124 131/131/131 125/125/125
f 130/130/130 131/131/131 124/124/124
f 123/123/123 130/130/130 124/124/124
f 129/129/129 130/130/130 123/123/123
f 122/122/122 129/129/129 123/123/123
f 128/128/128 129/129/129 122/122/122
f 121/121/121 128/128/128 122/122/122
f 127/127/127 128/128/128 121/121/121
g Combined Mesh (root: scene)_13
f 136/136/136 133/133/133 135/135/135
f 134/134/134 133/133/133 136/136/136
f 138/138/138 142/142/142 139/139/139
f 140/140/140 142/142/142 138/138/138
f 137/137/137 140/140/140 138/138/138
f 141/141/141 140/140/140 137/137/137
g Combined Mesh (root: scene)_14
f 146/146/146 143/143/143 145/145/145
f 144/144/144 143/143/143 146/146/146
f 150/150/150 154/154/154 149/149/149
f 153/153/153 154/154/154 150/150/150
f 148/148/148 153/153/153 150/150/150
f 151/151/151 153/153/153 148/148/148
f 147/147/147 151/151/151 148/148/148
f 152/152/152 151/151/151 147/147/147
g Combined Mesh (root: scene)_15
f 158/158/158 155/155/155 157/157/157
f 156/156/156 155/155/155 158/158/158
f 160/160/160 164/164/164 161/161/161
f 162/162/162 164/164/164 160/160/160
f 159/159/159 162/162/162 160/160/160
f 163/163/163 162/162/162 159/159/159
g Combined Mesh (root: scene)_16
f 168/168/168 165/165/165 167/167/167
f 166/166/166 165/165/165 168/168/168
f 172/172/172 176/176/176 171/171/171
f 175/175/175 176/176/176 172/172/172
f 170/170/170 175/175/175 172/172/172
f 173/173/173 175/175/175 170/170/170
f 169/169/169 173/173/173 170/170/170
f 174/174/174 173/173/173 169/169/169
g Combined Mesh (root: scene)_17
f 180/180/180 177/177/177 179/179/179
f 178/178/178 177/177/177 180/180/180
g Combined Mesh (root: scene)_18
f 182/182/182 184/184/184 185/185/185
f 181/181/181 184/184/184 182/182/182
f 189/189/189 186/186/186 187/187/187
f 190/190/190 186/186/186 189/189/189
f 191/191/191 183/183/183 188/188/188
f 192/192/192 183/183/183 191/191/191
g Combined Mesh (root: scene)_19
f 196/196/196 193/193/193 194/194/194
f 195/195/195 193/193/193 196/196/196
f 200/200/200 199/199/199 204/204/204
f 203/203/203 200/200/200 204/204/204
f 198/198/198 200/200/200 203/203/203
f 201/201/201 198/198/198 203/203/203
f 197/197/197 198/198/198 201/201/201
f 202/202/202 197/197/197 201/201/201
g Combined Mesh (root: scene)_20
f 208/208/208 205/205/205 207/207/207
f 206/206/206 205/205/205 208/208/208
g Combined Mesh (root: scene)_21
f 212/212/212 209/209/209 211/211/211
f 210/210/210 209/209/209 212/212/212
g Combined Mesh (root: scene)_22
f 216/216/216 219/219/219 224/224/224
f 218/218/218 219/219/219 216/216/216
f 214/214/214 218/218/218 216/216/216
f 217/217/217 218/218/218 214/214/214
f 215/215/215 220/220/220 221/221/221
f 222/222/222 220/220/220 215/215/215
f 213/213/213 222/222/222 215/215/215
f 223/223/223 222/222/222 213/213/213
g Combined Mesh (root: scene)_23
f 230/230/230 236/236/236 232/232/232
f 228/228/228 236/236/236 230/230/230
f 229/229/229 228/228/228 230/230/230
f 226/226/226 228/228/228 229/229/229
f 234/234/234 227/227/227 233/233/233
f 225/225/225 227/227/227 234/234/234
f 235/235/235 225/225/225 234/234/234
f 231/231/231 234/234/234 233/233/233
g Combined Mesh (root: scene)_24
f 241/241/241 248/248/248 242/242/242
f 247/247/247 248/248/248 241/241/241
f 240/240/240 247/247/247 241/241/241
f 246/246/246 247/247/247 240/240/240
f 239/239/239 246/246/246 240/240/240
f 245/245/245 246/246/246 239/239/239
f 238/238/238 245/245/245 239/239/239
f 244/244/244 245/245/245 238/238/238
f 237/237/237 244/244/244 238/238/238
f 243/243/243 244/244/244 237/237/237
g Combined Mesh (root: scene)_25
f 252/252/252 249/249/249 250/250/250
f 251/251/251 249/249/249 252/252/252
f 254/254/254 255/255/255 258/258/258
f 256/256/256 254/254/254 258/258/258
f 253/253/253 254/254/254 256/256/256
f 257/257/257 253/253/253 256/256/256
g Combined Mesh (root: scene)_26
f 260/260/260 263/263/263 262/262/262
f 261/261/261 263/263/263 260/260/260
f 267/267/267 265/265/265 264/264/264
f 268/268/268 265/265/265 267/267/267
f 269/269/269 266/266/266 259/259/259
f 270/270/270 266/266/266 269/269/269
g Combined Mesh (root: scene)_27
f 274/274/274 271/271/271 272/272/272
f 273/273/273 271/271/271 274/274/274
f 276/276/276 277/277/277 280/280/280
f 278/278/278 276/276/276 280/280/280
f 275/275/275 276/276/276 278/278/278
f 279/279/279 275/275/275 278/278/278
g Combined Mesh (root: scene)_28
f 284/284/284 281/281/281 282/282/282
f 283/283/283 281/281/281 284/284/284
f 288/288/288 287/287/287 292/292/292
f 291/291/291 288/288/288 292/292/292
f 286/286/286 288/288/288 291/291/291
f 289/289/289 286/286/286 291/291/291
f 285/285/285 286/286/286 289/289/289
f 290/290/290 285/285/285 289/289/289
g Combined Mesh (root: scene)_29
f 294/294/294 296/296/296 293/293/293
f 296/296/296 295/295/295 293/293/293
f 294/294/294 293/293/293 297/297/297
f 293/293/293 298/298/298 297/297/297
f 302/302/302 298/298/298 297/297/297
f 302/302/302 301/301/301 298/298/298
f 301/301/301 300/300/300 298/298/298
f 294/294/294 299/299/299 293/293/293
g Combined Mesh (root: scene)_30
f 304/304/304 305/305/305 303/303/303
f 304/304/304 306/306/306 305/305/305
g Combined Mesh (root: scene)_31
f 308/308/308 309/309/309 307/307/307
f 308/308/308 310/310/310 309/309/309
g Combined Mesh (root: scene)_32
f 312/312/312 313/313/313 311/311/311
f 312/312/312 314/314/314 313/313/313
