g Mining_Cart
v -51.58183 -44.01218 91.63733
v 29.15636 -98.48647 -9.212769
v 16.13985 44.2125 98.19897
v 96.87785 -10.26161 -2.651123
v -21.78581 76.82249 -35.47815
v 20.14961 48.52856 -87.85999
v -89.50749 -11.40227 -42.04004
v -43.34706 -42.14017 86.40723
v 28.43416 -90.57108 -3.254883
v 88.64314 -12.13371 2.578979
v 16.86211 36.29717 92.24109
v -64.82405 10.97215 -32.89844
v -21.72765 -18.10515 -86.7301
v 14.42079 28.98763 -83.22766
v -28.67534 58.06475 -29.39575
v 14.42766 82.98479 -91.54785
v 8.122147 76.23359 -80.66516
v 8.438187 64.41514 -72.66541
v 15.25508 52.04368 -70.60425
v 25.96901 43.84469 -75.26904
v 36.48759 42.94991 -84.87793
v 42.79311 49.70113 -95.76062
v 49.89607 66.87751 -96.13782
v 43.07918 79.24897 -98.19897
v 32.36525 87.44796 -93.53418
v 21.84666 88.34274 -83.92529
v 15.54115 81.59151 -73.0426
v 15.85719 69.77306 -65.04297
v 22.67409 57.4016 -62.98181
v 33.38802 49.20263 -67.64661
v 43.9066 48.30785 -77.25537
v 50.21211 55.05906 -88.13806
v 32.87663 68.32529 -80.59033
v -28.67513 90.03765 -28.77429
v -25.63539 83.94332 -20.91528
v -18.93315 76.4855 -18.15845
v -11.12822 70.51266 -21.55664
v -5.201736 68.30616 -29.81213
v -3.417679 70.70904 -39.77124
v -0.7501678 82.84922 -45.14893
v -7.452377 90.307 -47.90576
v -15.25746 96.28002 -44.50757
v -21.18388 98.48647 -36.25232
v -22.96803 96.08361 -26.29321
v -19.92848 89.98943 -18.4342
v -13.22609 82.53156 -15.67749
v -5.421158 76.55872 -19.07568
v 0.5052032 74.3522 -27.33081
v 2.289505 76.75494 -37.29016
v -10.33925 86.41932 -31.79163
v -20.39809 85.21561 -36.06274
v -21.11406 84.25143 -32.06616
v -19.89424 81.80592 -28.91272
v -17.20476 78.81316 -27.80627
v -14.0728 76.41636 -29.17004
v -100.5013 -5.86348 -68.04968
v -101.2176 -6.827286 -64.05322
v -99.99803 -9.27272 -60.89941
v -97.30946 -12.26485 -59.79211
v -94.17598 -14.6629 -61.15637
v -51.58183 -44.01218 91.63733
v 96.87785 -10.26161 -2.651123
v 16.13985 44.2125 98.19897
v -43.34706 -42.14017 86.40723
v -21.72765 -18.10515 -86.7301
v 28.43416 -90.57108 -3.254883
v -64.82405 10.97215 -32.89844
v 14.42079 28.98763 -83.22766
v 88.64314 -12.13371 2.578979
v 88.64314 -12.13371 2.578979
v 16.86211 36.29717 92.24109
v -64.82405 10.97215 -32.89844
v -43.34706 -42.14017 86.40723
v 21.84666 88.34274 -83.92529
v 15.54115 81.59151 -73.0426
v 15.85719 69.77306 -65.04297
v 22.67409 57.4016 -62.98181
v 33.38802 49.20263 -67.64661
v 43.9066 48.30785 -77.25537
v 50.21211 55.05906 -88.13806
v -22.96803 96.08361 -26.29321
v -19.92848 89.98943 -18.4342
v -13.22609 82.53156 -15.67749
v -5.421158 76.55872 -19.07568
v 0.5052032 74.3522 -27.33081
v 2.289505 76.75494 -37.29016
v 16.13985 44.2125 98.19897
v -21.78581 76.82249 -35.47815
v 28.43416 -90.57108 -3.254883
v -21.72765 -18.10515 -86.7301
v -28.67534 58.06475 -29.39575
v 14.42079 28.98763 -83.22766
v 16.86211 36.29717 92.24109
v -28.67534 58.06475 -29.39575
v 15.25508 52.04368 -70.60425
v 22.67409 57.4016 -62.98181
v -18.93315 76.4855 -18.15845
v -13.22609 82.53156 -15.67749
vt 0.7527338 0.3407613
vt 0.7527338 0.3407613
vt 0.5729196 0.3407613
vt 0.7527338 0.3407613
vt 0.5729196 0.5172278
vt 0.7527339 0.5172278
vt 0.7527339 0.5172278
vt 0.5802051 0.3487927
vt 0.7453777 0.3487927
vt 0.7453777 0.5092099
vt 0.5802051 0.5092099
vt 0.5729196 0.3407613
vt 0.7527338 0.3407613
vt 0.7527339 0.5172278
vt 0.5729196 0.5172278
vt 0.5873769 0.5010574
vt 0.637954 0.5010574
vt 0.6894668 0.5010574
vt 0.7378605 0.5010574
vt 0.6894668 0.5010574
vt 0.637954 0.5010574
vt 0.5873769 0.5010574
vt 0.8243622 0.5007741
vt 0.8083298 0.5124223
vt 0.7885126 0.5124223
vt 0.5873769 0.5170456
vt 0.637954 0.5170456
vt 0.6894668 0.5170456
vt 0.7378605 0.5170456
vt 0.6894668 0.5170456
vt 0.637954 0.5170456
vt 0.5873769 0.5170456
vt 0.7984212 0.4806443
vt 0.637954 0.5010574
vt 0.6894668 0.5010574
vt 0.7378605 0.5010574
vt 0.6894668 0.5010574
vt 0.637954 0.5010574
vt 0.5873769 0.5010574
vt 0.8243622 0.5007741
vt 0.8083298 0.5124223
vt 0.7885126 0.5124223
vt 0.7724802 0.5007741
vt 0.637954 0.5170456
vt 0.6894668 0.5170456
vt 0.7378605 0.5170456
vt 0.6894668 0.5170456
vt 0.637954 0.5170456
vt 0.5873769 0.5170456
vt 0.7984212 0.4806443
vt 0.580261 0.5355045
vt 0.5887699 0.5355045
vt 0.5971063 0.5355045
vt 0.6050071 0.5355045
vt 0.6130475 0.5355046
vt 0.58022 0.788282
vt 0.5887277 0.788282
vt 0.5970646 0.788282
vt 0.6049644 0.788282
vt 0.6130074 0.788282
vt 0.5729196 0.3407613
vt 0.7527339 0.5172278
vt 0.5729196 0.5172279
vt 0.5729196 0.3407613
vt 0.7527338 0.5172278
vt 0.7527338 0.3407613
vt 0.5729196 0.5172278
vt 0.5729196 0.5172278
vt 0.5729196 0.3407613
vt 0.7527338 0.3407613
vt 0.5729196 0.3407613
vt 0.7527339 0.5172278
vt 0.7527338 0.3407613
vt 0.7724802 0.5007741
vt 0.7663564 0.4819269
vt 0.7724802 0.4630797
vt 0.7885126 0.4514315
vt 0.8083298 0.4514315
vt 0.8243622 0.4630797
vt 0.830486 0.4819269
vt 0.7663564 0.4819269
vt 0.7724802 0.4630797
vt 0.7885126 0.4514315
vt 0.8083298 0.4514315
vt 0.8243622 0.4630797
vt 0.830486 0.4819269
vt 0.5729196 0.3407613
vt 0.5729196 0.5172278
vt 0.7527338 0.3407613
vt 0.7527339 0.5172278
vt 0.5729196 0.5172278
vt 0.7527338 0.5172278
vt 0.5729196 0.3407613
vt 0.5729196 0.5172278
vt 0.7378605 0.5010574
vt 0.7378605 0.5170456
vt 0.7378605 0.5010574
vt 0.7378605 0.5170456
vn -0.7555935 0.554001 0.3495157
vn 0.5467334 -0.4711315 0.6921833
vn 0.5856923 0.8099246 0.03141038
vn 0.5856923 0.8099246 0.03141038
vn 0.5856923 0.8099246 0.03141038
vn 0.5856923 0.8099246 0.03141038
vn -0.7555935 0.554001 0.3495157
vn 0.5467334 -0.4711315 0.6921833
vn 0.5467334 -0.4711315 0.6921833
vn 0.5467222 -0.4711431 0.6921842
vn 0.5467473 -0.4711219 0.6921789
vn 0.5467211 -0.4711483 0.6921815
vn 0.5467211 -0.4711483 0.6921815
vn 0.5467211 -0.4711483 0.6921815
vn 0.5467211 -0.4711483 0.6921815
vn -0.6456475 0.7575912 0.09588934
vn -0.750543 0.5743673 0.3267834
vn -0.7368606 0.0626866 0.673132
vn -0.4417213 -0.4729432 0.7623692
vn 0.02214254 -0.8279214 0.5604069
vn 0.4775445 -0.8666621 0.1443886
vn 0.6456456 -0.7575929 -0.09588946
vn 0.6229142 0.4498642 0.6400002
vn 0.6229137 0.4498655 0.6399996
vn 0.6229172 0.449863 0.639998
vn -0.6456475 0.7575912 0.09588934
vn -0.750543 0.5743673 0.3267834
vn -0.7368606 0.0626866 0.673132
vn -0.4417213 -0.4729432 0.7623692
vn 0.02214254 -0.8279214 0.5604069
vn 0.4775445 -0.8666621 0.1443886
vn 0.6456456 -0.7575929 -0.09588946
vn 0.6229147 0.4498627 0.6400006
vn -0.6942028 0.4135054 0.5891483
vn -0.5698982 0.2121742 0.7938502
vn -0.1715604 -0.2310499 0.9576967
vn 0.2922946 -0.5860261 0.7557362
vn 0.644505 -0.7171688 0.2651077
vn 0.7334207 -0.6790011 -0.03242803
vn 0.6577666 0.6968291 0.2859586
vn 0.65777 0.6968269 0.2859561
vn 0.6577657 0.696831 0.2859559
vn 0.6577638 0.6968307 0.2859609
vn -0.6942028 0.4135054 0.5891483
vn -0.5698982 0.2121742 0.7938502
vn -0.1715604 -0.2310499 0.9576967
vn 0.2922946 -0.5860261 0.7557362
vn 0.644505 -0.7171688 0.2651077
vn 0.7334207 -0.6790011 -0.03242803
vn 0.6577652 0.6968307 0.2859579
vn -0.7546915 0.6556792 0.02292334
vn -0.7642512 0.5595146 0.3207234
vn -0.565044 0.2174459 0.795891
vn -0.1498251 -0.2077137 0.9666476
vn 0.09083077 -0.4001569 0.9119344
vn -0.7546915 0.6556792 0.02292334
vn -0.7642512 0.5595146 0.3207234
vn -0.565044 0.2174459 0.795891
vn -0.1498251 -0.2077137 0.9666476
vn 0.09083077 -0.4001569 0.9119344
vn 0.5467334 -0.4711315 0.6921833
vn 0.5467222 -0.4711431 0.6921842
vn 0.5467473 -0.4711219 0.6921789
vn 0.6968027 0.6934526 0.1832742
vn 0.6968027 0.6934526 0.1832742
vn 0.6968027 0.6934526 0.1832742
vn 0.6968027 0.6934526 0.1832742
vn -0.5894355 0.4002656 0.7016788
vn -0.5894355 0.4002656 0.7016788
vn -0.5215445 -0.8521522 0.04275464
vn -0.5215445 -0.8521522 0.04275464
vn 0.7478504 -0.5459663 -0.3776781
vn 0.7478504 -0.5459663 -0.3776781
vn 0.622914 0.4498629 0.6400012
vn 0.6229119 0.4498628 0.6400034
vn 0.6229161 0.4498609 0.6400005
vn 0.6229184 0.4498612 0.639998
vn 0.6229149 0.4498612 0.6400015
vn 0.622912 0.4498626 0.6400033
vn 0.6229149 0.4498633 0.64
vn 0.6577608 0.6968334 0.2859611
vn 0.657761 0.6968352 0.2859568
vn 0.657767 0.6968296 0.2859563
vn 0.6577623 0.6968331 0.285959
vn 0.6577656 0.6968305 0.2859573
vn 0.6577687 0.6968279 0.2859565
vn -0.7555935 0.554001 0.3495157
vn -0.7555935 0.554001 0.3495157
vn -0.5894355 0.4002656 0.7016788
vn -0.5894355 0.4002656 0.7016788
vn -0.5215445 -0.8521522 0.04275464
vn -0.5215445 -0.8521522 0.04275464
vn 0.7478504 -0.5459663 -0.3776781
vn 0.7478504 -0.5459663 -0.3776781
vn -0.4417213 -0.4729432 0.7623692
vn -0.4417213 -0.4729432 0.7623692
vn -0.1715604 -0.2310499 0.9576967
vn -0.1715604 -0.2310499 0.9576967
g Mining_Cart_0
f 14/14/14 12/12/12 13/13/13
f 15/15/15 12/12/12 14/14/14
f 6/6/6 3/3/3 4/4/4
f 5/5/5 3/3/3 6/6/6
f 87/87/87 7/7/7 1/1/1
f 88/88/88 7/7/7 87/87/87
f 65/65/65 64/64/64 66/66/66
f 67/67/67 64/64/64 65/65/65
f 68/68/68 89/89/89 69/69/69
f 90/90/90 89/89/89 68/68/68
f 91/91/91 70/70/70 71/71/71
f 92/92/92 70/70/70 91/91/91
f 72/72/72 93/93/93 73/73/73
f 94/94/94 93/93/93 72/72/72
f 18/18/18 19/19/19 29/29/29
f 28/28/28 18/18/18 29/29/29
f 17/17/17 18/18/18 28/28/28
f 27/27/27 17/17/17 28/28/28
f 16/16/16 17/17/17 27/27/27
f 26/26/26 16/16/16 27/27/27
f 21/21/21 22/22/22 32/32/32
f 31/31/31 21/21/21 32/32/32
f 20/20/20 21/21/21 31/31/31
f 30/30/30 20/20/20 31/31/31
f 95/95/95 20/20/20 30/30/30
f 96/96/96 95/95/95 30/30/30
f 35/35/35 36/36/36 46/46/46
f 45/45/45 35/35/35 46/46/46
f 34/34/34 35/35/35 45/45/45
f 44/44/44 34/34/34 45/45/45
f 38/38/38 39/39/39 49/49/49
f 48/48/48 38/38/38 49/49/49
f 37/37/37 38/38/38 48/48/48
f 47/47/47 37/37/37 48/48/48
f 97/97/97 37/37/37 47/47/47
f 98/98/98 97/97/97 47/47/47
f 59/59/59 60/60/60 55/55/55
f 54/54/54 59/59/59 55/55/55
f 58/58/58 59/59/59 54/54/54
f 53/53/53 58/58/58 54/54/54
f 57/57/57 58/58/58 53/53/53
f 52/52/52 57/57/57 53/53/53
f 56/56/56 57/57/57 52/52/52
f 51/51/51 56/56/56 52/52/52
f 8/8/8 61/61/61 9/9/9
f 63/63/63 61/61/61 8/8/8
f 11/11/11 63/63/63 8/8/8
f 62/62/62 63/63/63 11/11/11
f 10/10/10 62/62/62 11/11/11
f 2/2/2 62/62/62 10/10/10
f 9/9/9 2/2/2 10/10/10
f 61/61/61 2/2/2 9/9/9
f 33/33/33 24/24/24 25/25/25
f 23/23/23 24/24/24 33/33/33
f 80/80/80 23/23/23 33/33/33
f 33/33/33 75/75/75 76/76/76
f 74/74/74 75/75/75 33/33/33
f 25/25/25 74/74/74 33/33/33
f 33/33/33 78/78/78 79/79/79
f 77/77/77 78/78/78 33/33/33
f 76/76/76 77/77/77 33/33/33
f 33/33/33 79/79/79 80/80/80
f 50/50/50 41/41/41 42/42/42
f 40/40/40 41/41/41 50/50/50
f 86/86/86 40/40/40 50/50/50
f 50/50/50 81/81/81 82/82/82
f 43/43/43 81/81/81 50/50/50
f 42/42/42 43/43/43 50/50/50
f 50/50/50 84/84/84 85/85/85
f 83/83/83 84/84/84 50/50/50
f 82/82/82 83/83/83 50/50/50
f 50/50/50 85/85/85 86/86/86
