# Blender 5.0.0
# www.blender.org
mtllib TVSign.mtl
o TVSign
v 102.400002 51.199997 6.400001
v 102.400002 51.200005 -6.400000
v 102.400002 -51.200005 6.400000
v 102.400002 -51.199997 -6.400001
v -102.400002 51.199997 6.400001
v -102.400002 51.200005 -6.400000
v -102.400002 -51.200005 6.400000
v -102.400002 -51.199997 -6.400001
v -115.200005 64.000008 -6.400000
v -115.200005 -63.999996 -6.400001
v 115.200005 64.000008 -6.400000
v 115.200005 63.999996 6.400001
v -115.200005 -64.000008 6.400000
v 115.200005 -64.000008 6.400000
v 115.200005 -63.999996 -6.400001
v -115.200005 63.999996 6.400001
v 102.400002 -51.200005 -0.000000
v -102.400002 -51.200005 -0.000000
v 102.400002 51.199997 0.000000
v -102.400002 51.199997 0.000000
vn -0.0000 -1.0000 -0.0000
vn -0.0000 -0.0000 1.0000
vn -0.0000 -0.0000 -1.0000
vn -1.0000 -0.0000 -0.0000
vn 1.0000 -0.0000 -0.0000
vn -0.0000 1.0000 -0.0000
vt 0.625000 0.500000
vt 0.875000 0.500000
vt 0.875000 0.750000
vt 0.125000 0.500000
vt 0.125000 0.750000
vt 0.375000 0.500000
vt 0.375000 0.750000
vt 0.625000 0.750000
vt 0.625000 1.000000
vt 0.375000 1.000000
vt 0.375000 0.000000
vt 0.625000 0.000000
vt 0.625000 0.250000
vt 0.375000 0.250000
s 0
usemtl Material
f 1/1/1 5/2/1 20/2/1 19/1/1
f 7/3/2 5/2/2 16/2/2 13/3/2
f 6/4/3 8/5/3 10/5/3 9/4/3
f 6/4/3 2/6/3 4/7/3 8/5/3
f 4/7/3 2/6/3 11/6/3 15/7/3
f 3/8/2 7/3/2 13/3/2 14/8/2
f 15/7/1 14/8/1 13/9/1 10/10/1
f 10/11/4 13/12/4 16/13/4 9/14/4
f 11/6/5 12/1/5 14/8/5 15/7/5
f 9/14/6 16/13/6 12/1/6 11/6/6
f 1/1/2 3/8/2 14/8/2 12/1/2
f 2/6/3 6/4/3 9/4/3 11/6/3
f 5/2/2 1/1/2 12/1/2 16/2/2
f 8/5/3 4/7/3 15/7/3 10/5/3
f 7/3/6 3/8/6 17/8/6 18/3/6
f 5/2/5 7/3/5 18/3/5 20/2/5
f 3/8/4 1/1/4 19/1/4 17/8/4
